<svg width="97" height="35" viewBox="0 0 97 35" fill="none" xmlns="http://www.w3.org/2000/svg">
<path d="M-2.92063e-05 14.336C-2.92063e-05 7.36 4.92797 2.176 12.192 2.176C19.456 2.176 24.32 7.36 24.32 14.336C24.32 21.312 19.456 26.56 12.192 26.56C4.92797 26.56 -2.92063e-05 21.312 -2.92063e-05 14.336ZM12.096 4.096C7.71197 4.096 5.66397 8.704 5.66397 14.048C5.66397 19.744 7.74397 24.48 12.16 24.48C16.544 24.48 18.688 20.096 18.688 14.56C18.688 8.672 16.544 4.096 12.096 4.096ZM37.627 24.928C35.963 26.08 33.819 26.56 32.219 26.56C29.115 26.56 27.323 24.864 27.323 22.496C27.323 21.44 27.387 20.448 27.387 19.456V17.568C27.387 14.144 27.387 11.872 25.115 11.872H24.443C24.155 11.872 23.995 11.584 23.995 11.296C23.995 11.04 24.123 10.752 24.443 10.656C25.563 10.336 30.459 9.888 31.227 9.888C31.835 9.888 32.283 10.272 32.283 11.232C32.283 12.192 32.155 14.848 32.155 18.272C32.155 21.952 32.475 24.032 34.619 24.032C35.675 24.032 36.603 23.808 37.499 23.264C37.563 22.496 37.627 19.904 37.627 18.08V17.184C37.627 13.76 37.531 11.872 35.259 11.872H34.715C34.299 11.872 34.139 11.584 34.139 11.296C34.139 11.04 34.267 10.752 34.587 10.656C35.707 10.336 40.603 9.888 41.371 9.888C41.979 9.888 42.427 10.272 42.427 11.232C42.427 12.192 42.299 14.848 42.299 18.272V19.872C42.299 23.072 42.363 24.256 43.963 24.256C44.091 24.256 44.251 24.224 44.507 24.224C44.827 24.224 44.987 24.48 44.987 24.672C44.987 25.632 42.651 26.56 40.987 26.56C39.291 26.56 37.979 25.824 37.627 24.928ZM59.0125 11.232C60.7405 9.984 62.0845 9.696 62.6925 9.696C63.8445 9.696 63.8765 11.104 63.8765 11.808C63.8765 12.224 63.6845 12.544 62.9165 12.576L60.0365 12.768C60.7405 13.44 60.9325 14.528 60.9325 15.296C60.9325 18.688 57.7325 20.576 53.6685 20.576C52.7725 20.576 52.0045 20.448 51.4605 20.384C51.1085 20.544 50.7885 21.12 50.7885 21.632C50.7885 22.112 51.0445 22.56 51.7805 22.624L57.9885 23.296C60.9005 23.616 62.9165 25.184 62.9165 28.256C62.9165 32.576 58.1165 34.24 52.9325 34.24C48.8365 34.24 44.9325 33.28 44.9325 30.08C44.9325 27.808 47.1405 26.784 49.5405 26.784C48.1005 26.304 47.1725 25.056 47.1725 23.648C47.1725 22.368 47.9405 20.928 49.8605 19.84C48.1005 19.488 46.0525 17.824 46.0525 15.296C46.0525 11.232 49.5725 9.568 53.6685 9.568C55.9405 9.568 58.0525 10.368 59.0125 11.232ZM55.1085 27.392L52.9005 27.168C50.7885 26.944 49.0925 27.808 49.0925 29.664C49.0925 31.168 50.5325 32.384 53.3485 32.384C55.9725 32.384 58.6605 31.744 58.6605 29.792C58.6605 28.32 57.6045 27.648 55.1085 27.392ZM51.2045 15.296C51.2045 17.312 51.8445 18.784 53.7325 18.784C55.1725 18.784 55.9405 17.536 55.9405 15.296C55.9405 12.352 54.8845 11.264 53.5085 11.264C52.1965 11.264 51.2045 12.352 51.2045 15.296ZM70.9985 12.256L72.0545 11.552C73.5905 10.528 75.3185 9.568 77.4305 9.568C79.5425 9.568 81.9105 10.816 81.9105 14.976V22.848C81.9105 24.576 82.1345 24.768 84.0545 25.056C84.3745 25.088 84.5345 25.376 84.5345 25.664C84.5345 25.952 84.3745 26.24 83.9905 26.24H75.4785C75.0945 26.24 74.9025 25.952 74.9025 25.664C74.9025 25.376 75.0625 25.12 75.3825 25.088C76.8225 24.928 77.1425 24.512 77.1425 20.192V15.872C77.1425 14.016 76.4065 12.992 74.9025 12.992C73.7825 12.992 72.2785 13.504 70.9985 14.176V22.848C70.9985 24.576 71.2225 24.768 73.1425 25.056C73.4625 25.088 73.6225 25.376 73.6225 25.664C73.6225 25.952 73.4625 26.24 73.0785 26.24H63.6705C63.2865 26.24 63.0945 25.952 63.0945 25.664C63.0945 25.376 63.2545 25.12 63.5745 25.088C65.0145 24.928 66.2945 24.672 66.2945 21.056V7.712C66.2945 4.288 66.1985 2.336 64.2465 2.336H63.5745C63.2865 2.336 63.1265 2.048 63.1265 1.76C63.1265 1.504 63.2545 1.216 63.5745 1.12C64.6945 0.800005 69.3025 3.8147e-06 70.0705 3.8147e-06C70.6785 3.8147e-06 71.1265 0.384005 71.1265 1.344C71.1265 2.304 70.9985 4.256 70.9985 7.68V12.256ZM91.1432 11.68V20.544C91.1432 22.656 92.2632 23.584 93.8312 23.584C95.3992 23.584 95.7512 22.976 96.2632 22.976C96.4872 22.976 96.6472 23.072 96.6472 23.36C96.6472 24.832 93.9912 26.56 91.0152 26.56C88.3272 26.56 86.2792 25.344 86.2792 22.208C86.2792 19.52 86.4712 14.24 86.4712 11.616H84.7112C84.2632 11.616 83.9112 11.392 83.9112 10.944C83.9112 10.24 85.0632 10.016 86.9192 8.448C88.9352 6.752 89.6392 5.92 90.4072 5.92C90.9192 5.92 91.1432 6.24001 91.1432 6.84801V9.984C92.8072 9.984 94.2792 9.76 95.1112 9.76C95.7512 9.76 96.0712 10.304 96.0712 10.784C96.0712 11.2 95.7832 11.68 95.0472 11.68H91.1432Z" fill="black"/>
</svg>
